<svg width="173" height="184" viewBox="0 0 173 184" fill="none" xmlns="http://www.w3.org/2000/svg">
<path fill-rule="evenodd" clip-rule="evenodd" d="M7 17H24C24 17 24 3.80837e-07 42.5 3.78535e-07C61 3.76234e-07 61 17 61 17H111.5C111.5 17 111.5 0.00292999 130 3.78535e-07C148.5 -0.00292923 148 17 148 17H166C169.866 17 173 20.134 173 24V166C173 175.941 164.941 184 155 184H18C8.05887 184 0 175.941 0 166V24C0 20.134 3.13401 17 7 17ZM42.5 14.0068C46 14.0068 47 17.0068 47 17.0068V31.0657C47 31.0657 46 34.0068 42.5 34.0068C39 34.0068 38 30.0068 38 30.0068V17C38 17 39 14.0068 42.5 14.0068ZM134.5 17C134.5 17 133.5 14 130 14C126.5 14 125.5 16.9932 125.5 16.9932V30C125.5 30 126.5 34 130 34C133.5 34 134.5 31.0589 134.5 31.0589V17ZM25 31.7174H15V160.717C15 165.688 19.0294 169.717 24 169.717H149C153.971 169.717 158 165.688 158 160.717V32.2176L148.5 32.2174C148.5 32.2174 148 48.2174 130 48.2174C112 48.2174 111.5 32.2174 111.5 32.2174L61 32.7174C61 32.7174 61 48.7174 42.5 48.7174C25 48.7174 25 31.7174 25 31.7174Z" fill="#F7F8FA"/>
<path fill-rule="evenodd" clip-rule="evenodd" d="M89.9886 62.718C100.489 62.718 103.872 71.6553 112.489 78.218C121.081 84.7625 132.331 85.718 133.989 96.218C135.646 106.718 128.341 108.142 125.489 116.218C122.732 124.021 128.888 133.526 118.989 142.718C111.992 149.214 97.0049 139.728 90 139.718C83 139.718 66.9997 149.218 59.9997 142.718C50.1002 133.525 56.2559 124.021 53.4997 116.218C50.6472 108.142 43.3418 106.718 44.9997 96.2178C46.6576 85.7178 57.9068 84.7623 66.4997 78.2178C75.1165 71.6551 79.5 62.7178 90 62.7178L89.9886 62.718ZM109.801 131.684C106.166 135.718 96.6305 126.641 89.5008 126.641H89.4993C82.3697 126.641 72.8342 135.718 69.1991 131.684C65.5639 127.65 69.8048 117.127 68.6195 113.026C67.4341 108.925 59.4292 101.932 60.0324 98.9189C61.0421 93.8751 74.1158 91.9577 76.803 89.829C79.3493 87.8119 84.4283 76.7178 89.4993 76.7178H89.5008C94.5719 76.7178 99.6507 87.8119 102.197 89.829C104.884 91.9577 117.958 93.8751 118.968 98.9189C119.571 101.932 111.566 108.925 110.381 113.026C109.195 117.127 113.436 127.65 109.801 131.684Z" fill="#F7F8FA"/>
</svg>
